<svg xmlns="http://www.w3.org/2000/svg" width="16" height="17" fill="none"><g clip-path="url(#a)"><mask id="b" width="16" height="17" x="0" y="0" maskUnits="userSpaceOnUse" style="mask-type:luminance"><path fill="#fff" d="M15.458.777H.759v15.434h14.699z"/></mask><g mask="url(#b)"><path fill="#fff" d="M9.526 9.982c-1.155 1.252-1.24 2.811-1.339 6.229 3.034 0 5.129-.011 6.21-1.114 1.05-1.135 1.06-3.44 1.06-6.52-3.254.11-4.74.193-5.931 1.405M.759 8.577c0 3.08.01 5.385 1.06 6.52 1.082 1.103 3.176 1.114 6.21 1.114-.104-3.418-.183-4.977-1.338-6.229C5.499 8.77 4.014 8.682.759 8.577m7.27-7.8c-3.028 0-5.128.011-6.21 1.114C.77 3.026.76 5.33.76 8.41c3.255-.11 4.74-.193 5.932-1.405C7.846 5.754 7.93 4.195 8.03.777m1.497 6.229C8.37 5.754 8.286 4.195 8.187.777c3.034 0 5.129.011 6.21 1.114 1.05 1.135 1.06 3.439 1.06 6.52-3.254-.11-4.74-.193-5.931-1.405"/><path fill="#1C1C1C" d="M15.458 8.577V8.41c-3.255-.11-4.74-.193-5.932-1.405C8.37 5.754 8.286 4.195 8.187.777H8.03c-.105 3.418-.184 4.977-1.339 6.229C5.499 8.218 4.014 8.306.759 8.41v.166c3.255.11 4.74.193 5.932 1.405 1.155 1.252 1.239 2.811 1.339 6.229h.157c.105-3.418.184-4.977 1.339-6.229 1.191-1.212 2.677-1.3 5.932-1.405"/></g></g><defs><clipPath id="a"><path fill="#fff" d="M.759.777h14.699v15.434H.759z"/></clipPath></defs></svg>