<svg xmlns="http://www.w3.org/2000/svg" width="27" height="25" fill="none"><path fill="#fff" fill-rule="evenodd" d="M24.19 6.193c.155-.568 0-.987-.748-.987h-2.468c-.628 0-.918.362-1.075.76 0 0-1.255 3.328-3.033 5.49-.575.626-.836.825-1.15.825-.157 0-.393-.199-.393-.768v-5.32c0-.683-.173-.987-.696-.987h-3.881a.62.62 0 0 0-.628.618c0 .646.89.796.98 2.616v3.955c0 .867-.143 1.024-.457 1.024-.837 0-2.873-3.343-4.08-7.168-.235-.745-.472-1.045-1.103-1.045h-2.47c-.705 0-.846.362-.846.76 0 .71.837 4.238 3.897 8.903 2.04 3.186 4.913 4.914 7.53 4.914 1.568 0 1.762-.384 1.762-1.045V16.33c0-.767.149-.92.646-.92.367 0 .994.2 2.459 1.735 1.673 1.821 1.948 2.638 2.89 2.638h2.468c.706 0 1.06-.384.856-1.142-.224-.753-1.023-1.848-2.082-3.146-.576-.74-1.439-1.536-1.701-1.934-.366-.512-.262-.74 0-1.195 0 0 3.008-4.608 3.321-6.173z" clip-rule="evenodd"/></svg>