<svg xmlns="http://www.w3.org/2000/svg" width="20" height="17" fill="none"><g clip-path="url(#a)"><path fill="#fff" d="M19.586 3.188a2.84 2.84 0 0 0-.642-1.235 2.44 2.44 0 0 0-1.112-.714C16.284.777 10.078.777 10.078.777s-6.205 0-7.753.46a2.43 2.43 0 0 0-1.112.713A2.84 2.84 0 0 0 .57 3.186C.157 4.906.157 8.494.157 8.494s0 3.588.414 5.306c.228.949.901 1.696 1.754 1.949 1.548.462 7.753.462 7.753.462s6.206 0 7.754-.462c.855-.253 1.526-1 1.754-1.95C20 12.083 20 8.495 20 8.495s0-3.588-.414-5.306m-11.479 8.6V5.2l5.138 3.268z"/></g><defs><clipPath id="a"><path fill="#fff" d="M.157.777H20v15.434H.157z"/></clipPath></defs></svg>